<svg xmlns="http://www.w3.org/2000/svg" xmlns:xlink="http://www.w3.org/1999/xlink" width="529" zoomAndPan="magnify" viewBox="0 0 396.75 396.749985" height="529" preserveAspectRatio="xMidYMid meet" version="1.0"><defs><clipPath id="e5e10c5c82"><path d="M 0 30 L 396.5 30 L 396.5 369 L 0 369 Z M 0 30 " clip-rule="nonzero"/></clipPath><clipPath id="5da6dee677"><path d="M 0 0.941406 L 396.5 0.941406 L 396.5 338.886719 L 0 338.886719 Z M 0 0.941406 " clip-rule="nonzero"/></clipPath><clipPath id="f87fa7c036"><path d="M 0 1 L 396.285156 1 L 396.285156 189 L 0 189 Z M 0 1 " clip-rule="nonzero"/></clipPath><clipPath id="a0f6c1ed77"><path d="M 0 147 L 396.285156 147 L 396.285156 335 L 0 335 Z M 0 147 " clip-rule="nonzero"/></clipPath><clipPath id="4ffb1b50ba"><path d="M 83.496094 39 L 396.5 39 L 396.5 188 L 83.496094 188 Z M 83.496094 39 " clip-rule="nonzero"/></clipPath><clipPath id="3a9b3ade1c"><path d="M 83.496094 154 L 396.5 154 L 396.5 303 L 83.496094 303 Z M 83.496094 154 " clip-rule="nonzero"/></clipPath><clipPath id="b90f3190c9"><rect x="0" width="397" y="0" height="339"/></clipPath><clipPath id="2a1baed399"><rect x="0" width="397" y="0" height="339"/></clipPath></defs><g clip-path="url(#e5e10c5c82)"><g transform="matrix(1, 0, 0, 1, 0, 30)"><g clip-path="url(#2a1baed399)"><g clip-path="url(#5da6dee677)"><g><g clip-path="url(#b90f3190c9)"><g clip-path="url(#f87fa7c036)"><path fill="#000000" d="M 297.238281 95.277344 L 396.371094 1.929688 L 306.488281 1.929688 L 297.238281 10.632812 L 198.121094 103.988281 L 98.992188 10.632812 L 89.75 1.929688 L -0.125 1.929688 L 98.992188 95.277344 L 198.121094 188.628906 Z M 297.238281 95.277344 " fill-opacity="1" fill-rule="nonzero"/></g><g clip-path="url(#a0f6c1ed77)"><path fill="#000000" d="M 297.238281 241.328125 L 396.371094 147.96875 L 306.488281 147.96875 L 297.238281 156.675781 L 198.121094 250.023438 L 98.992188 156.675781 L 89.75 147.96875 L -0.125 147.96875 L 98.992188 241.328125 L 198.121094 334.679688 Z M 297.238281 241.328125 " fill-opacity="1" fill-rule="nonzero"/></g><g clip-path="url(#4ffb1b50ba)"><path fill="#d265f0" d="M 318.257812 113.332031 L 396.554688 39.582031 L 325.5625 39.582031 L 318.257812 46.460938 L 239.976562 120.210938 L 161.683594 46.460938 L 154.382812 39.582031 L 83.398438 39.582031 L 161.683594 113.332031 L 239.976562 187.078125 Z M 318.257812 113.332031 " fill-opacity="1" fill-rule="nonzero"/></g><g clip-path="url(#3a9b3ade1c)"><path fill="#d265f0" d="M 318.257812 228.710938 L 396.554688 154.957031 L 325.5625 154.957031 L 318.257812 161.835938 L 239.976562 235.582031 L 161.683594 161.835938 L 154.382812 154.957031 L 83.398438 154.957031 L 161.683594 228.710938 L 239.976562 302.460938 Z M 318.257812 228.710938 " fill-opacity="1" fill-rule="nonzero"/></g></g></g></g></g></g></g></svg>