<svg xmlns="http://www.w3.org/2000/svg" xmlns:xlink="http://www.w3.org/1999/xlink" width="1089" zoomAndPan="magnify" viewBox="0 0 816.75 135.000003" height="180" preserveAspectRatio="xMidYMid meet" version="1.0"><defs><clipPath id="ac73accd95"><path d="M 2.878906 7 L 813.625 7 L 813.625 127 L 2.878906 127 Z M 2.878906 7 " clip-rule="nonzero"/></clipPath><clipPath id="49b62c85bb"><path d="M 4 0.839844 L 100 0.839844 L 100 5 L 4 5 Z M 4 0.839844 " clip-rule="nonzero"/></clipPath><clipPath id="e03fd08ec2"><path d="M 0.878906 0.839844 L 5 0.839844 L 5 101 L 0.878906 101 Z M 0.878906 0.839844 " clip-rule="nonzero"/></clipPath><clipPath id="6ae87a79ac"><path d="M 10 6 L 118.441406 6 L 118.441406 11 L 10 11 Z M 10 6 " clip-rule="nonzero"/></clipPath><clipPath id="f802457aea"><path d="M 6 6 L 11 6 L 11 119.160156 L 6 119.160156 Z M 6 6 " clip-rule="nonzero"/></clipPath><clipPath id="1574332b85"><path d="M 712 115 L 809 115 L 809 119.160156 L 712 119.160156 Z M 712 115 " clip-rule="nonzero"/></clipPath><clipPath id="cdd6f502ca"><path d="M 808 19 L 811.617188 19 L 811.617188 119.160156 L 808 119.160156 Z M 808 19 " clip-rule="nonzero"/></clipPath><clipPath id="ddfb98099d"><path d="M 694.054688 109 L 802 109 L 802 114 L 694.054688 114 Z M 694.054688 109 " clip-rule="nonzero"/></clipPath><clipPath id="4ad5bd7623"><path d="M 801 0.839844 L 806 0.839844 L 806 114 L 801 114 Z M 801 0.839844 " clip-rule="nonzero"/></clipPath><clipPath id="03428de9d7"><rect x="0" width="812" y="0" height="120"/></clipPath></defs><g clip-path="url(#ac73accd95)"><g transform="matrix(1, 0, 0, 1, 2, 7)"><g clip-path="url(#03428de9d7)"><g clip-path="url(#49b62c85bb)"><path fill="#900020" d="M 4.433594 4.5 L 4.433594 0.917969 L 99.703125 0.917969 L 99.703125 4.5 Z M 4.433594 4.5 " fill-opacity="1" fill-rule="nonzero"/></g><g clip-path="url(#e03fd08ec2)"><path fill="#900020" d="M 4.433594 100.28125 L 0.878906 100.28125 L 0.878906 0.917969 L 4.433594 0.917969 Z M 4.433594 100.28125 " fill-opacity="1" fill-rule="nonzero"/></g><g clip-path="url(#6ae87a79ac)"><path fill="#900020" d="M 10.796875 10.851562 L 10.796875 6.8125 L 118.453125 6.8125 L 118.453125 10.851562 Z M 10.796875 10.851562 " fill-opacity="1" fill-rule="nonzero"/></g><g clip-path="url(#f802457aea)"><path fill="#900020" d="M 10.796875 119.101562 L 6.773438 119.101562 L 6.773438 6.8125 L 10.796875 6.8125 Z M 10.796875 119.101562 " fill-opacity="1" fill-rule="nonzero"/></g><g clip-path="url(#1574332b85)"><path fill="#900020" d="M 808.0625 115.503906 L 808.0625 119.082031 L 712.792969 119.082031 L 712.792969 115.503906 Z M 808.0625 115.503906 " fill-opacity="1" fill-rule="nonzero"/></g><g clip-path="url(#cdd6f502ca)"><path fill="#900020" d="M 808.0625 19.71875 L 811.617188 19.71875 L 811.617188 119.082031 L 808.0625 119.082031 Z M 808.0625 19.71875 " fill-opacity="1" fill-rule="nonzero"/></g><g clip-path="url(#ddfb98099d)"><path fill="#900020" d="M 801.699219 109.148438 L 801.699219 113.191406 L 694.039062 113.191406 L 694.039062 109.148438 Z M 801.699219 109.148438 " fill-opacity="1" fill-rule="nonzero"/></g><g clip-path="url(#4ad5bd7623)"><path fill="#900020" d="M 801.699219 0.902344 L 805.722656 0.902344 L 805.722656 113.191406 L 801.699219 113.191406 Z M 801.699219 0.902344 " fill-opacity="1" fill-rule="nonzero"/></g></g></g></g></svg>