<svg xmlns="http://www.w3.org/2000/svg" xmlns:xlink="http://www.w3.org/1999/xlink" width="1080" zoomAndPan="magnify" viewBox="0 0 810 225" height="300" preserveAspectRatio="xMidYMid meet" version="1.0"><defs><filter x="0%" y="0%" width="100%" height="100%" id="34920625db"><feColorMatrix values="0 0 0 0 1 0 0 0 0 1 0 0 0 0 1 0 0 0 1 0" color-interpolation-filters="sRGB"/></filter><g/><clipPath id="ebbae24e7e"><path d="M 0 0 L 810 0 L 810 225 L 0 225 Z M 0 0 " clip-rule="nonzero"/></clipPath><radialGradient gradientTransform="matrix(0.99939, 0, 0, 1.00061, 1.091074, -6.415302)" gradientUnits="userSpaceOnUse" r="377.665663" cx="404.740606" id="b73481a71e" cy="118.842866" fx="404.740606" fy="118.842866"><stop stop-opacity="1" stop-color="rgb(78.98407%, 80.986023%, 92.861938%)" offset="0"/><stop stop-opacity="1" stop-color="rgb(79.273987%, 80.648804%, 92.727661%)" offset="0.015625"/><stop stop-opacity="1" stop-color="rgb(79.522705%, 80.358887%, 92.61322%)" offset="0.0273438"/><stop stop-opacity="1" stop-color="rgb(79.769897%, 80.06897%, 92.498779%)" offset="0.0390625"/><stop stop-opacity="1" stop-color="rgb(80.018616%, 79.779053%, 92.384338%)" offset="0.0507812"/><stop stop-opacity="1" stop-color="rgb(80.267334%, 79.490662%, 92.268372%)" offset="0.0625"/><stop stop-opacity="1" stop-color="rgb(80.514526%, 79.200745%, 92.153931%)" offset="0.0742188"/><stop stop-opacity="1" stop-color="rgb(80.763245%, 78.910828%, 92.03949%)" offset="0.0859375"/><stop stop-opacity="1" stop-color="rgb(81.010437%, 78.620911%, 91.923523%)" offset="0.0976562"/><stop stop-opacity="1" stop-color="rgb(81.259155%, 78.330994%, 91.809082%)" offset="0.109375"/><stop stop-opacity="1" stop-color="rgb(81.507874%, 78.042603%, 91.694641%)" offset="0.121094"/><stop stop-opacity="1" stop-color="rgb(81.755066%, 77.752686%, 91.5802%)" offset="0.132812"/><stop stop-opacity="1" stop-color="rgb(82.003784%, 77.462769%, 91.464233%)" offset="0.144531"/><stop stop-opacity="1" stop-color="rgb(82.252502%, 77.172852%, 91.349792%)" offset="0.15625"/><stop stop-opacity="1" stop-color="rgb(82.499695%, 76.88446%, 91.235352%)" offset="0.167969"/><stop stop-opacity="1" stop-color="rgb(82.748413%, 76.594543%, 91.120911%)" offset="0.179688"/><stop stop-opacity="1" stop-color="rgb(82.997131%, 76.304626%, 91.004944%)" offset="0.191406"/><stop stop-opacity="1" stop-color="rgb(83.244324%, 76.014709%, 90.890503%)" offset="0.203125"/><stop stop-opacity="1" stop-color="rgb(83.493042%, 75.724792%, 90.776062%)" offset="0.214844"/><stop stop-opacity="1" stop-color="rgb(83.74176%, 75.436401%, 90.661621%)" offset="0.226562"/><stop stop-opacity="1" stop-color="rgb(83.988953%, 75.146484%, 90.545654%)" offset="0.238281"/><stop stop-opacity="1" stop-color="rgb(84.237671%, 74.856567%, 90.431213%)" offset="0.25"/><stop stop-opacity="1" stop-color="rgb(84.44519%, 74.615479%, 90.336609%)" offset="0.261719"/><stop stop-opacity="1" stop-color="rgb(84.609985%, 74.421692%, 90.258789%)" offset="0.269531"/><stop stop-opacity="1" stop-color="rgb(84.776306%, 74.229431%, 90.182495%)" offset="0.277344"/><stop stop-opacity="1" stop-color="rgb(84.941101%, 74.035645%, 90.106201%)" offset="0.285156"/><stop stop-opacity="1" stop-color="rgb(85.107422%, 73.843384%, 90.029907%)" offset="0.292969"/><stop stop-opacity="1" stop-color="rgb(85.272217%, 73.649597%, 89.953613%)" offset="0.300781"/><stop stop-opacity="1" stop-color="rgb(85.437012%, 73.457336%, 89.877319%)" offset="0.308594"/><stop stop-opacity="1" stop-color="rgb(85.603333%, 73.26355%, 89.7995%)" offset="0.316406"/><stop stop-opacity="1" stop-color="rgb(85.768127%, 73.071289%, 89.723206%)" offset="0.324219"/><stop stop-opacity="1" stop-color="rgb(85.934448%, 72.877502%, 89.646912%)" offset="0.332031"/><stop stop-opacity="1" stop-color="rgb(86.099243%, 72.685242%, 89.570618%)" offset="0.339844"/><stop stop-opacity="1" stop-color="rgb(86.265564%, 72.491455%, 89.494324%)" offset="0.347656"/><stop stop-opacity="1" stop-color="rgb(86.430359%, 72.299194%, 89.416504%)" offset="0.355469"/><stop stop-opacity="1" stop-color="rgb(86.59668%, 72.105408%, 89.34021%)" offset="0.363281"/><stop stop-opacity="1" stop-color="rgb(86.761475%, 71.913147%, 89.263916%)" offset="0.371094"/><stop stop-opacity="1" stop-color="rgb(87.008667%, 71.62323%, 89.149475%)" offset="0.378906"/><stop stop-opacity="1" stop-color="rgb(87.339783%, 71.237183%, 88.995361%)" offset="0.394531"/><stop stop-opacity="1" stop-color="rgb(87.670898%, 70.851135%, 88.842773%)" offset="0.410156"/><stop stop-opacity="1" stop-color="rgb(88.002014%, 70.465088%, 88.690186%)" offset="0.425781"/><stop stop-opacity="1" stop-color="rgb(88.33313%, 70.079041%, 88.536072%)" offset="0.441406"/><stop stop-opacity="1" stop-color="rgb(88.664246%, 69.691467%, 88.383484%)" offset="0.457031"/><stop stop-opacity="1" stop-color="rgb(88.995361%, 69.30542%, 88.230896%)" offset="0.472656"/><stop stop-opacity="1" stop-color="rgb(89.326477%, 68.919373%, 88.076782%)" offset="0.488281"/><stop stop-opacity="1" stop-color="rgb(89.614868%, 68.582153%, 87.942505%)" offset="0.503906"/><stop stop-opacity="1" stop-color="rgb(89.863586%, 68.293762%, 87.828064%)" offset="0.515625"/><stop stop-opacity="1" stop-color="rgb(90.112305%, 68.003845%, 87.713623%)" offset="0.527344"/><stop stop-opacity="1" stop-color="rgb(90.359497%, 67.713928%, 87.599182%)" offset="0.539062"/><stop stop-opacity="1" stop-color="rgb(90.608215%, 67.424011%, 87.483215%)" offset="0.550781"/><stop stop-opacity="1" stop-color="rgb(90.856934%, 67.13562%, 87.368774%)" offset="0.5625"/><stop stop-opacity="1" stop-color="rgb(91.104126%, 66.845703%, 87.254333%)" offset="0.574219"/><stop stop-opacity="1" stop-color="rgb(91.352844%, 66.555786%, 87.138367%)" offset="0.585938"/><stop stop-opacity="1" stop-color="rgb(91.601562%, 66.265869%, 87.023926%)" offset="0.597656"/><stop stop-opacity="1" stop-color="rgb(91.848755%, 65.975952%, 86.909485%)" offset="0.609375"/><stop stop-opacity="1" stop-color="rgb(92.097473%, 65.687561%, 86.795044%)" offset="0.621094"/><stop stop-opacity="1" stop-color="rgb(92.304993%, 65.444946%, 86.698914%)" offset="0.632812"/><stop stop-opacity="1" stop-color="rgb(92.469788%, 65.252686%, 86.62262%)" offset="0.640625"/><stop stop-opacity="1" stop-color="rgb(92.636108%, 65.058899%, 86.546326%)" offset="0.648438"/><stop stop-opacity="1" stop-color="rgb(92.800903%, 64.866638%, 86.470032%)" offset="0.65625"/><stop stop-opacity="1" stop-color="rgb(92.967224%, 64.672852%, 86.393738%)" offset="0.664062"/><stop stop-opacity="1" stop-color="rgb(93.132019%, 64.480591%, 86.315918%)" offset="0.671875"/><stop stop-opacity="1" stop-color="rgb(93.296814%, 64.286804%, 86.239624%)" offset="0.679688"/><stop stop-opacity="1" stop-color="rgb(93.463135%, 64.094543%, 86.16333%)" offset="0.6875"/><stop stop-opacity="1" stop-color="rgb(93.710327%, 63.804626%, 86.048889%)" offset="0.695312"/><stop stop-opacity="1" stop-color="rgb(94.041443%, 63.418579%, 85.894775%)" offset="0.710938"/><stop stop-opacity="1" stop-color="rgb(94.372559%, 63.032532%, 85.742188%)" offset="0.726562"/><stop stop-opacity="1" stop-color="rgb(94.703674%, 62.646484%, 85.5896%)" offset="0.742188"/><stop stop-opacity="1" stop-color="rgb(94.993591%, 62.309265%, 85.455322%)" offset="0.757812"/><stop stop-opacity="1" stop-color="rgb(95.240784%, 62.019348%, 85.339355%)" offset="0.769531"/><stop stop-opacity="1" stop-color="rgb(95.489502%, 61.729431%, 85.224915%)" offset="0.78125"/><stop stop-opacity="1" stop-color="rgb(95.73822%, 61.439514%, 85.110474%)" offset="0.792969"/><stop stop-opacity="1" stop-color="rgb(95.985413%, 61.151123%, 84.996033%)" offset="0.804688"/><stop stop-opacity="1" stop-color="rgb(96.192932%, 60.908508%, 84.899902%)" offset="0.816406"/><stop stop-opacity="1" stop-color="rgb(96.359253%, 60.716248%, 84.823608%)" offset="0.824219"/><stop stop-opacity="1" stop-color="rgb(96.524048%, 60.522461%, 84.747314%)" offset="0.832031"/><stop stop-opacity="1" stop-color="rgb(96.688843%, 60.3302%, 84.671021%)" offset="0.839844"/><stop stop-opacity="1" stop-color="rgb(96.937561%, 60.040283%, 84.555054%)" offset="0.847656"/><stop stop-opacity="1" stop-color="rgb(97.268677%, 59.654236%, 84.402466%)" offset="0.863281"/><stop stop-opacity="1" stop-color="rgb(97.558594%, 59.317017%, 84.268188%)" offset="0.878906"/><stop stop-opacity="1" stop-color="rgb(97.805786%, 59.0271%, 84.153748%)" offset="0.890625"/><stop stop-opacity="1" stop-color="rgb(98.054504%, 58.737183%, 84.037781%)" offset="0.902344"/><stop stop-opacity="1" stop-color="rgb(98.262024%, 58.496094%, 83.943176%)" offset="0.914062"/><stop stop-opacity="1" stop-color="rgb(98.426819%, 58.302307%, 83.866882%)" offset="0.921875"/><stop stop-opacity="1" stop-color="rgb(98.675537%, 58.01239%, 83.750916%)" offset="0.929688"/><stop stop-opacity="1" stop-color="rgb(98.963928%, 57.675171%, 83.616638%)" offset="0.945312"/><stop stop-opacity="1" stop-color="rgb(99.171448%, 57.434082%, 83.522034%)" offset="0.957031"/><stop stop-opacity="1" stop-color="rgb(99.420166%, 57.144165%, 83.407593%)" offset="0.964844"/><stop stop-opacity="1" stop-color="rgb(99.667358%, 56.854248%, 83.291626%)" offset="0.980469"/><stop stop-opacity="1" stop-color="rgb(99.874878%, 56.613159%, 83.195496%)" offset="0.988281"/><stop stop-opacity="1" stop-color="rgb(100%, 56.469727%, 83.139038%)" offset="1"/></radialGradient><clipPath id="6c3368b574"><rect x="0" width="810" y="0" height="225"/></clipPath><clipPath id="6339bb215c"><rect x="0" width="810" y="0" height="225"/></clipPath><clipPath id="6e1d85df36"><rect x="0" width="810" y="0" height="225"/></clipPath><mask id="e24942f62a"><g filter="url(#34920625db)"><g transform="matrix(1, 0, 0, 1, 0, -0.000000000000008531)"><g clip-path="url(#6e1d85df36)"><g transform="matrix(1, 0, 0, 1, 0, -0.000000000000008531)"><g clip-path="url(#6339bb215c)"><g fill="#000000" fill-opacity="1"><g transform="translate(36.762965, 163.463827)"><g><path d="M 66.25 0 L 2.375 0 C 0.789062 0 0 -0.789062 0 -2.375 L 0 -45.859375 C 0 -49.828125 1.414062 -53.253906 4.25 -56.140625 C 7.082031 -59.023438 10.535156 -60.523438 14.609375 -60.640625 L 54.875 -60.640625 L 54.875 -77.640625 L 27.6875 -77.640625 C 26.101562 -77.640625 25.3125 -78.429688 25.3125 -80.015625 L 25.3125 -110.421875 C 25.3125 -112.117188 26.101562 -112.96875 27.6875 -112.96875 L 63.875 -112.96875 L 63.875 -130.96875 L 4.921875 -130.96875 L 4.921875 -68.453125 C 4.921875 -66.984375 4.070312 -66.25 2.375 -66.25 C 0.789062 -66.25 0 -66.984375 0 -68.453125 L 0 -133.515625 C 0 -135.109375 0.789062 -135.90625 2.375 -135.90625 L 66.25 -135.90625 C 67.945312 -135.90625 68.796875 -135.109375 68.796875 -133.515625 L 68.796875 -110.421875 C 68.796875 -108.835938 67.945312 -108.046875 66.25 -108.046875 L 30.234375 -108.046875 L 30.234375 -82.5625 L 57.25 -82.5625 C 58.832031 -82.5625 59.625 -81.710938 59.625 -80.015625 L 59.625 -58.09375 C 59.625 -56.625 58.832031 -55.890625 57.25 -55.890625 L 15.28125 -55.890625 C 12.34375 -55.890625 9.878906 -54.867188 7.890625 -52.828125 C 5.910156 -50.785156 4.921875 -48.410156 4.921875 -45.703125 L 4.921875 -4.921875 L 63.875 -4.921875 L 63.875 -22.9375 L 27.6875 -22.9375 C 26.101562 -22.9375 25.3125 -23.785156 25.3125 -25.484375 L 25.3125 -42.296875 C 25.3125 -43.878906 26.101562 -44.671875 27.6875 -44.671875 C 29.382812 -44.671875 30.234375 -43.878906 30.234375 -42.296875 L 30.234375 -27.859375 L 66.25 -27.859375 C 67.945312 -27.859375 68.796875 -27.066406 68.796875 -25.484375 L 68.796875 -2.375 C 68.796875 -0.789062 67.945312 0 66.25 0 Z M 66.25 0 "/></g></g></g><g fill="#000000" fill-opacity="1"><g transform="translate(122.382134, 163.463827)"><g><path d="M 41.625 -58.78125 C 41.625 -57.195312 40.773438 -56.40625 39.078125 -56.40625 C 37.484375 -56.40625 36.6875 -57.195312 36.6875 -58.78125 L 36.6875 -72.03125 L 4.59375 -72.03125 L 4.59375 -61.328125 L 20.71875 -61.328125 C 22.3125 -61.328125 23.109375 -60.476562 23.109375 -58.78125 C 23.109375 -57.300781 22.3125 -56.5625 20.71875 -56.5625 L 2.203125 -56.5625 C 0.503906 -56.5625 -0.34375 -57.300781 -0.34375 -58.78125 L -0.34375 -74.40625 C -0.34375 -76.101562 0.503906 -76.953125 2.203125 -76.953125 L 39.078125 -76.953125 C 40.773438 -76.953125 41.625 -76.101562 41.625 -74.40625 Z M 41.625 -58.78125 "/></g></g></g><g fill="#000000" fill-opacity="1"><g transform="translate(180.820625, 163.463827)"><g><path d="M 27.859375 0 L 2.375 0 C 0.789062 0 0 -0.789062 0 -2.375 L 0 -69.484375 C 0 -71.066406 0.789062 -71.859375 2.375 -71.859375 C 4.070312 -71.859375 4.921875 -71.066406 4.921875 -69.484375 L 4.921875 -4.921875 L 25.484375 -4.921875 L 25.484375 -58.09375 C 25.484375 -59.789062 26.273438 -60.640625 27.859375 -60.640625 L 55.375 -60.640625 L 55.375 -77.640625 L 14.953125 -77.640625 C 10.753906 -77.640625 7.210938 -79.082031 4.328125 -81.96875 C 1.441406 -84.851562 0 -88.390625 0 -92.578125 L 0 -133.515625 C 0 -135.109375 0.789062 -135.90625 2.375 -135.90625 L 62.6875 -135.90625 C 64.269531 -135.90625 65.0625 -135.109375 65.0625 -133.515625 L 65.0625 -110.421875 C 65.0625 -108.835938 64.269531 -108.046875 62.6875 -108.046875 L 30.234375 -108.046875 L 30.234375 -95.984375 C 30.234375 -94.285156 29.441406 -93.4375 27.859375 -93.4375 C 26.273438 -93.4375 25.484375 -94.285156 25.484375 -95.984375 L 25.484375 -110.421875 C 25.484375 -112.117188 26.273438 -112.96875 27.859375 -112.96875 L 60.140625 -112.96875 L 60.140625 -130.96875 L 4.921875 -130.96875 L 4.921875 -92.578125 C 4.921875 -89.742188 5.882812 -87.363281 7.8125 -85.4375 C 9.738281 -83.519531 12.117188 -82.5625 14.953125 -82.5625 L 57.59375 -82.5625 C 59.289062 -82.5625 60.140625 -81.710938 60.140625 -80.015625 L 60.140625 -58.09375 C 60.140625 -56.625 59.289062 -55.890625 57.59375 -55.890625 L 30.234375 -55.890625 L 30.234375 -2.375 C 30.234375 -0.789062 29.441406 0 27.859375 0 Z M 27.859375 0 "/></g></g></g><g fill="#000000" fill-opacity="1"><g transform="translate(262.87228, 163.463827)"><g><path d="M 26.84375 0 L 2.375 0 C 0.789062 0 0 -0.789062 0 -2.375 L 0 -93.265625 C 0 -97.335938 0.648438 -100.363281 1.953125 -102.34375 C 3.253906 -104.332031 4.894531 -105.632812 6.875 -106.25 C 8.863281 -106.875 10.816406 -107.1875 12.734375 -107.1875 L 15.796875 -107.1875 C 17.378906 -107.1875 18.171875 -106.394531 18.171875 -104.8125 C 18.171875 -103.113281 17.378906 -102.265625 15.796875 -102.265625 L 12.734375 -102.265625 C 10.359375 -102.265625 8.460938 -101.8125 7.046875 -100.90625 C 5.628906 -100 4.921875 -97.453125 4.921875 -93.265625 L 4.921875 -4.921875 L 24.625 -4.921875 L 24.625 -130.96875 L 4.921875 -130.96875 L 4.921875 -118.578125 C 4.921875 -116.984375 4.070312 -116.1875 2.375 -116.1875 C 0.789062 -116.1875 0 -116.984375 0 -118.578125 L 0 -133.515625 C 0 -135.109375 0.789062 -135.90625 2.375 -135.90625 L 26.84375 -135.90625 C 28.539062 -135.90625 29.390625 -135.109375 29.390625 -133.515625 L 29.390625 -2.375 C 29.390625 -0.789062 28.539062 0 26.84375 0 Z M 26.84375 0 "/></g></g></g><g fill="#000000" fill-opacity="1"><g transform="translate(309.079433, 163.463827)"><g><path d="M 21.75 -130.96875 L 4.921875 -130.96875 L 4.921875 -4.921875 L 25.3125 -4.921875 L 25.3125 -86.46875 C 25.3125 -86.695312 25.367188 -86.976562 25.484375 -87.3125 C 25.710938 -87.65625 25.9375 -87.882812 26.15625 -88 C 26.382812 -88.113281 26.554688 -88.222656 26.671875 -88.328125 C 26.785156 -88.441406 26.898438 -88.5 27.015625 -88.5 L 28.03125 -88.5 C 28.257812 -88.5 28.539062 -88.390625 28.875 -88.171875 C 29.21875 -88.054688 29.445312 -87.828125 29.5625 -87.484375 L 29.890625 -87.3125 L 67.609375 -15.28125 L 70.328125 -11.046875 C 71.578125 -9.003906 73.050781 -7.472656 74.75 -6.453125 C 76.445312 -5.429688 79.21875 -4.921875 83.0625 -4.921875 L 91.5625 -4.921875 C 93.144531 -4.921875 93.9375 -4.070312 93.9375 -2.375 C 93.9375 -0.789062 93.144531 0 91.5625 0 L 83.0625 0 C 78.988281 0 75.617188 -0.648438 72.953125 -1.953125 C 70.296875 -3.253906 68.003906 -5.4375 66.078125 -8.5 L 63.359375 -12.578125 L 63.359375 -12.734375 L 30.234375 -76.28125 L 30.234375 -2.375 C 30.234375 -0.789062 29.382812 0 27.6875 0 L 2.375 0 C 1.695312 0 1.128906 -0.222656 0.671875 -0.671875 C 0.222656 -1.128906 0 -1.695312 0 -2.375 L 0 -133.515625 C 0 -135.109375 0.789062 -135.90625 2.375 -135.90625 L 21.75 -135.90625 C 26.164062 -135.90625 29.53125 -135 31.84375 -133.1875 C 34.164062 -131.375 36.234375 -128.9375 38.046875 -125.875 L 89.1875 -33.296875 L 89.1875 -130.96875 L 67.953125 -130.96875 L 67.953125 -102.4375 C 67.953125 -100.851562 67.160156 -100.0625 65.578125 -100.0625 C 63.878906 -100.0625 63.03125 -100.851562 63.03125 -102.4375 L 63.03125 -133.515625 C 63.03125 -135.109375 63.878906 -135.90625 65.578125 -135.90625 L 91.5625 -135.90625 C 93.144531 -135.90625 93.9375 -135.109375 93.9375 -133.515625 L 93.9375 -23.4375 C 93.9375 -23.21875 93.820312 -22.9375 93.59375 -22.59375 C 93.488281 -22.25 93.265625 -22.019531 92.921875 -21.90625 C 92.804688 -21.800781 92.691406 -21.691406 92.578125 -21.578125 C 92.460938 -21.460938 92.296875 -21.40625 92.078125 -21.40625 L 91.390625 -21.40625 C 91.054688 -21.40625 90.71875 -21.519531 90.375 -21.75 C 89.914062 -21.96875 89.632812 -22.191406 89.53125 -22.421875 L 89.359375 -22.765625 L 33.8125 -123.5 C 32.332031 -126.21875 30.769531 -128.140625 29.125 -129.265625 C 27.488281 -130.398438 25.03125 -130.96875 21.75 -130.96875 Z M 21.75 -130.96875 "/></g></g></g><g fill="#000000" fill-opacity="1"><g transform="translate(419.840682, 163.463827)"><g><path d="M 61.5 -127.234375 C 67.832031 -122.253906 72.640625 -114.863281 75.921875 -105.0625 C 79.210938 -95.269531 80.859375 -83.46875 80.859375 -69.65625 C 80.859375 -41.226562 74.628906 -21.066406 62.171875 -9.171875 C 59.796875 -7.023438 56.457031 -4.957031 52.15625 -2.96875 C 47.851562 -0.988281 42.242188 0 35.328125 0 L 2.375 0 C 0.789062 0 0 -0.789062 0 -2.375 C 0 -4.070312 0.789062 -4.921875 2.375 -4.921875 L 35.328125 -4.921875 C 41.335938 -4.921875 46.265625 -5.769531 50.109375 -7.46875 C 53.960938 -9.164062 56.851562 -10.867188 58.78125 -12.578125 C 70.332031 -23.671875 76.109375 -42.695312 76.109375 -69.65625 C 76.109375 -75.65625 75.65625 -82.109375 74.75 -89.015625 C 73.84375 -95.921875 72.113281 -102.398438 69.5625 -108.453125 C 67.007812 -114.515625 63.359375 -119.472656 58.609375 -123.328125 C 54.078125 -126.835938 49.207031 -128.988281 44 -129.78125 C 38.789062 -130.570312 32.785156 -130.96875 25.984375 -130.96875 L 4.921875 -130.96875 L 4.921875 -37.03125 C 4.921875 -32.726562 5.628906 -30.125 7.046875 -29.21875 C 8.460938 -28.3125 10.414062 -27.859375 12.90625 -27.859375 L 34.484375 -27.859375 C 36.523438 -27.859375 38.734375 -28.222656 41.109375 -28.953125 C 43.484375 -29.691406 45.238281 -31.648438 46.375 -34.828125 C 47.164062 -37.203125 47.785156 -40.425781 48.234375 -44.5 C 48.691406 -48.582031 48.976562 -52.71875 49.09375 -56.90625 C 49.207031 -61.09375 49.265625 -64.488281 49.265625 -67.09375 C 49.265625 -77.40625 48.894531 -85.390625 48.15625 -91.046875 C 47.425781 -96.710938 46.351562 -100.734375 44.9375 -103.109375 C 43.519531 -105.492188 41.929688 -106.9375 40.171875 -107.4375 C 38.421875 -107.945312 36.523438 -108.203125 34.484375 -108.203125 L 29.5625 -108.203125 L 29.5625 -41.28125 C 29.5625 -39.695312 28.769531 -38.90625 27.1875 -38.90625 C 25.59375 -38.90625 24.796875 -39.695312 24.796875 -41.28125 L 24.796875 -110.59375 C 24.796875 -111.269531 25.019531 -111.863281 25.46875 -112.375 C 25.925781 -112.882812 26.5 -113.140625 27.1875 -113.140625 L 34.484375 -113.140625 C 37.992188 -113.140625 40.96875 -112.570312 43.40625 -111.4375 C 45.84375 -110.300781 47.878906 -108.144531 49.515625 -104.96875 C 51.160156 -101.800781 52.347656 -97.160156 53.078125 -91.046875 C 53.816406 -84.929688 54.1875 -76.945312 54.1875 -67.09375 C 54.1875 -66.875 54.15625 -65.488281 54.09375 -62.9375 C 54.039062 -60.382812 53.929688 -57.269531 53.765625 -53.59375 C 53.597656 -49.914062 53.285156 -46.234375 52.828125 -42.546875 C 52.378906 -38.867188 51.757812 -35.785156 50.96875 -33.296875 C 50.164062 -30.921875 48.578125 -28.597656 46.203125 -26.328125 C 43.828125 -24.066406 39.921875 -22.9375 34.484375 -22.9375 L 12.90625 -22.9375 C 10.875 -22.9375 8.863281 -23.242188 6.875 -23.859375 C 4.894531 -24.484375 3.253906 -25.785156 1.953125 -27.765625 C 0.648438 -29.753906 0 -32.84375 0 -37.03125 L 0 -133.515625 C 0 -135.109375 0.789062 -135.90625 2.375 -135.90625 L 25.984375 -135.90625 C 33.117188 -135.90625 39.546875 -135.476562 45.265625 -134.625 C 50.984375 -133.78125 56.394531 -131.316406 61.5 -127.234375 Z M 61.5 -127.234375 "/></g></g></g><g fill="#000000" fill-opacity="1"><g transform="translate(517.691125, 163.463827)"><g><path d="M 26.84375 0 L 2.375 0 C 0.789062 0 0 -0.789062 0 -2.375 L 0 -93.265625 C 0 -97.335938 0.648438 -100.363281 1.953125 -102.34375 C 3.253906 -104.332031 4.894531 -105.632812 6.875 -106.25 C 8.863281 -106.875 10.816406 -107.1875 12.734375 -107.1875 L 15.796875 -107.1875 C 17.378906 -107.1875 18.171875 -106.394531 18.171875 -104.8125 C 18.171875 -103.113281 17.378906 -102.265625 15.796875 -102.265625 L 12.734375 -102.265625 C 10.359375 -102.265625 8.460938 -101.8125 7.046875 -100.90625 C 5.628906 -100 4.921875 -97.453125 4.921875 -93.265625 L 4.921875 -4.921875 L 24.625 -4.921875 L 24.625 -130.96875 L 4.921875 -130.96875 L 4.921875 -118.578125 C 4.921875 -116.984375 4.070312 -116.1875 2.375 -116.1875 C 0.789062 -116.1875 0 -116.984375 0 -118.578125 L 0 -133.515625 C 0 -135.109375 0.789062 -135.90625 2.375 -135.90625 L 26.84375 -135.90625 C 28.539062 -135.90625 29.390625 -135.109375 29.390625 -133.515625 L 29.390625 -2.375 C 29.390625 -0.789062 28.539062 0 26.84375 0 Z M 26.84375 0 "/></g></g></g><g fill="#000000" fill-opacity="1"><g transform="translate(563.898279, 163.463827)"><g><path d="M 21.75 -130.96875 L 4.921875 -130.96875 L 4.921875 -4.921875 L 25.3125 -4.921875 L 25.3125 -86.46875 C 25.3125 -86.695312 25.367188 -86.976562 25.484375 -87.3125 C 25.710938 -87.65625 25.9375 -87.882812 26.15625 -88 C 26.382812 -88.113281 26.554688 -88.222656 26.671875 -88.328125 C 26.785156 -88.441406 26.898438 -88.5 27.015625 -88.5 L 28.03125 -88.5 C 28.257812 -88.5 28.539062 -88.390625 28.875 -88.171875 C 29.21875 -88.054688 29.445312 -87.828125 29.5625 -87.484375 L 29.890625 -87.3125 L 67.609375 -15.28125 L 70.328125 -11.046875 C 71.578125 -9.003906 73.050781 -7.472656 74.75 -6.453125 C 76.445312 -5.429688 79.21875 -4.921875 83.0625 -4.921875 L 91.5625 -4.921875 C 93.144531 -4.921875 93.9375 -4.070312 93.9375 -2.375 C 93.9375 -0.789062 93.144531 0 91.5625 0 L 83.0625 0 C 78.988281 0 75.617188 -0.648438 72.953125 -1.953125 C 70.296875 -3.253906 68.003906 -5.4375 66.078125 -8.5 L 63.359375 -12.578125 L 63.359375 -12.734375 L 30.234375 -76.28125 L 30.234375 -2.375 C 30.234375 -0.789062 29.382812 0 27.6875 0 L 2.375 0 C 1.695312 0 1.128906 -0.222656 0.671875 -0.671875 C 0.222656 -1.128906 0 -1.695312 0 -2.375 L 0 -133.515625 C 0 -135.109375 0.789062 -135.90625 2.375 -135.90625 L 21.75 -135.90625 C 26.164062 -135.90625 29.53125 -135 31.84375 -133.1875 C 34.164062 -131.375 36.234375 -128.9375 38.046875 -125.875 L 89.1875 -33.296875 L 89.1875 -130.96875 L 67.953125 -130.96875 L 67.953125 -102.4375 C 67.953125 -100.851562 67.160156 -100.0625 65.578125 -100.0625 C 63.878906 -100.0625 63.03125 -100.851562 63.03125 -102.4375 L 63.03125 -133.515625 C 63.03125 -135.109375 63.878906 -135.90625 65.578125 -135.90625 L 91.5625 -135.90625 C 93.144531 -135.90625 93.9375 -135.109375 93.9375 -133.515625 L 93.9375 -23.4375 C 93.9375 -23.21875 93.820312 -22.9375 93.59375 -22.59375 C 93.488281 -22.25 93.265625 -22.019531 92.921875 -21.90625 C 92.804688 -21.800781 92.691406 -21.691406 92.578125 -21.578125 C 92.460938 -21.460938 92.296875 -21.40625 92.078125 -21.40625 L 91.390625 -21.40625 C 91.054688 -21.40625 90.71875 -21.519531 90.375 -21.75 C 89.914062 -21.96875 89.632812 -22.191406 89.53125 -22.421875 L 89.359375 -22.765625 L 33.8125 -123.5 C 32.332031 -126.21875 30.769531 -128.140625 29.125 -129.265625 C 27.488281 -130.398438 25.03125 -130.96875 21.75 -130.96875 Z M 21.75 -130.96875 "/></g></g></g><g fill="#000000" fill-opacity="1"><g transform="translate(674.659527, 163.463827)"><g><path d="M 49.265625 2.03125 C 48.703125 2.03125 48.109375 2.003906 47.484375 1.953125 C 46.859375 1.898438 46.265625 1.816406 45.703125 1.703125 C 39.128906 0.679688 34.203125 -2.828125 30.921875 -8.828125 C 29.554688 -11.210938 28.5625 -14.835938 27.9375 -19.703125 C 27.320312 -24.578125 26.925781 -29.84375 26.75 -35.5 C 26.582031 -41.164062 26.5 -46.488281 26.5 -51.46875 L 26.5 -65.734375 C 26.5 -69.816406 26.582031 -74.265625 26.75 -79.078125 C 26.925781 -83.890625 27.265625 -88.53125 27.765625 -93 C 28.273438 -97.476562 29.097656 -101.191406 30.234375 -104.140625 C 32.617188 -111.046875 36.867188 -114.5 42.984375 -114.5 L 43.140625 -114.5 C 46.546875 -114.5 49.066406 -113.050781 50.703125 -110.15625 C 52.347656 -107.269531 53.394531 -103.5625 53.84375 -99.03125 C 54.300781 -94.5 54.585938 -89.914062 54.703125 -85.28125 L 76.4375 -87.140625 C 74.0625 -117.609375 62.738281 -132.84375 42.46875 -132.84375 C 33.40625 -132.84375 25.988281 -129.898438 20.21875 -124.015625 C 16.03125 -119.703125 12.828125 -114.289062 10.609375 -107.78125 C 8.398438 -101.269531 6.898438 -94.414062 6.109375 -87.21875 C 5.316406 -80.03125 4.921875 -73.320312 4.921875 -67.09375 C 4.921875 -40.257812 9.625 -21.859375 19.03125 -11.890625 C 20.15625 -10.753906 20.097656 -9.566406 18.859375 -8.328125 C 17.722656 -7.191406 16.585938 -7.191406 15.453125 -8.328125 C 5.148438 -19.191406 0 -38.78125 0 -67.09375 C 0 -73.664062 0.421875 -80.742188 1.265625 -88.328125 C 2.117188 -95.921875 3.765625 -103.195312 6.203125 -110.15625 C 8.640625 -117.125 12.175781 -122.988281 16.8125 -127.75 C 23.5 -134.539062 32.050781 -137.9375 42.46875 -137.9375 C 46.539062 -137.9375 50.703125 -137.195312 54.953125 -135.71875 C 59.203125 -134.25 63.222656 -131.617188 67.015625 -127.828125 C 70.804688 -124.035156 74.003906 -118.6875 76.609375 -111.78125 C 79.210938 -104.875 80.910156 -95.984375 81.703125 -85.109375 C 81.703125 -83.410156 80.910156 -82.503906 79.328125 -82.390625 L 52.65625 -80.015625 C 52.09375 -80.015625 51.472656 -80.238281 50.796875 -80.6875 C 50.222656 -81.144531 49.9375 -81.769531 49.9375 -82.5625 L 49.9375 -83.40625 C 49.820312 -87.144531 49.625 -91.023438 49.34375 -95.046875 C 49.0625 -99.066406 48.4375 -102.488281 47.46875 -105.3125 C 46.507812 -108.144531 45.015625 -109.5625 42.984375 -109.5625 C 41.054688 -109.5625 39.46875 -109.109375 38.21875 -108.203125 C 36.976562 -107.296875 35.847656 -105.429688 34.828125 -102.609375 C 34.035156 -100.222656 33.410156 -97.332031 32.953125 -93.9375 C 32.503906 -90.539062 32.164062 -86.972656 31.9375 -83.234375 C 31.707031 -79.503906 31.5625 -76.050781 31.5 -72.875 C 31.445312 -69.707031 31.421875 -67.273438 31.421875 -65.578125 L 31.421875 -51.46875 C 31.421875 -42.300781 31.59375 -34.941406 31.9375 -29.390625 C 32.28125 -23.835938 32.734375 -19.671875 33.296875 -16.890625 C 33.859375 -14.117188 34.425781 -12.226562 35 -11.21875 C 37.71875 -6.570312 41.566406 -3.851562 46.546875 -3.0625 C 50.847656 -2.488281 55.207031 -3.25 59.625 -5.34375 C 64.039062 -7.445312 67.609375 -9.859375 70.328125 -12.578125 C 73.390625 -15.515625 75.226562 -17.601562 75.84375 -18.84375 C 76.46875 -20.09375 76.78125 -20.773438 76.78125 -20.890625 L 76.78125 -57.421875 L 50.28125 -60.140625 L 50.28125 -52.15625 L 55.546875 -51.46875 C 56.910156 -51.238281 57.59375 -50.390625 57.59375 -48.921875 L 57.59375 -17.84375 C 57.59375 -16.132812 56.796875 -15.28125 55.203125 -15.28125 C 53.503906 -15.28125 52.65625 -16.132812 52.65625 -17.84375 L 52.65625 -46.890625 L 47.5625 -47.5625 C 46.09375 -47.675781 45.359375 -48.523438 45.359375 -50.109375 L 45.359375 -62.859375 C 45.359375 -63.765625 45.640625 -64.441406 46.203125 -64.890625 C 46.660156 -65.234375 47.285156 -65.40625 48.078125 -65.40625 L 79.328125 -62.171875 C 80.910156 -62.054688 81.703125 -61.265625 81.703125 -59.796875 L 81.703125 -20.890625 C 81.703125 -19.191406 80.851562 -17.265625 79.15625 -15.109375 C 77.457031 -12.960938 75.644531 -10.925781 73.71875 -9 C 70.894531 -6.0625 67.273438 -3.488281 62.859375 -1.28125 C 58.441406 0.925781 53.910156 2.03125 49.265625 2.03125 Z M 49.265625 2.03125 "/></g></g></g></g></g></g></g></g></mask><clipPath id="041554ba8c"><path d="M 0 0 L 810 0 L 810 225 L 0 225 Z M 0 0 " clip-rule="nonzero"/></clipPath><clipPath id="4d135f61be"><rect x="0" width="810" y="0" height="225"/></clipPath><clipPath id="6a0c6d312d"><rect x="0" width="810" y="0" height="225"/></clipPath><clipPath id="4a82cea9e4"><rect x="0" width="810" y="0" height="225"/></clipPath></defs><g transform="matrix(1, 0, 0, 1, 0, -0.000000000000008531)"><g clip-path="url(#4a82cea9e4)"><g transform="matrix(1, 0, 0, 1, 0, -0.000000000000008531)"><g clip-path="url(#6a0c6d312d)"><g mask="url(#e24942f62a)"><g transform="matrix(1, 0, 0, 1, 0, -0.000000000000008531)"><g clip-path="url(#4d135f61be)"><g clip-path="url(#041554ba8c)"><rect x="-434.808" fill="url(#b73481a71e)" width="1679.616" height="466.56" y="-120.78"/></g></g></g></g></g></g></g></g></svg>